<svg xmlns="http://www.w3.org/2000/svg" viewBox="0 0 512 512">
<defs>
<radialGradient id="bg" cx="32%" cy="18%" r="92%"><stop stop-color="#244d3a"/><stop offset=".52" stop-color="#10291e"/><stop offset="1" stop-color="#07120d"/></radialGradient>
<linearGradient id="leaf" x1="0" y1="0" x2="1" y2="1"><stop stop-color="#f1ead3"/><stop offset=".48" stop-color="#b9cda8"/><stop offset="1" stop-color="#6e9b77"/></linearGradient>
<radialGradient id="gold" cx="35%" cy="25%" r="70%"><stop stop-color="#f0dda0"/><stop offset=".55" stop-color="#cbb26a"/><stop offset="1" stop-color="#9b7d36"/></radialGradient>
<filter id="shadow" x="-30%" y="-30%" width="160%" height="180%"><feDropShadow dx="0" dy="15" stdDeviation="12" flood-color="#000" flood-opacity=".34"/></filter>
</defs>
<rect width="512" height="512" rx="132" fill="url(#bg)"/>
<path d="M72 88c94-51 276-51 368 0" fill="none" stroke="#fff" stroke-opacity=".055" stroke-width="3" stroke-linecap="round"/>
<g filter="url(#shadow)">
<path d="M274 406c-7-88 3-169 42-246" fill="none" stroke="url(#leaf)" stroke-width="24" stroke-linecap="round"/>
<path d="M286 304c-65-9-112-51-132-113 62-1 111 28 139 79-1 13-3 24-7 34Z" fill="url(#leaf)" opacity=".96"/>
<path d="M315 274c23-67 72-108 139-117-9 70-51 124-121 143-8-8-14-17-18-26Z" fill="url(#leaf)" opacity=".9"/>
<path d="M300 213c-18-45-9-86 25-119 35 39 42 83 19 127-15 1-30-2-44-8Z" fill="url(#leaf)" opacity=".86"/>
<circle cx="326" cy="150" r="31" fill="url(#gold)"/>
<circle cx="316" cy="140" r="9" fill="#fff" opacity=".28"/>
</g>
<path d="M116 424c84 27 196 28 280 0" fill="none" stroke="#cbb26a" stroke-opacity=".16" stroke-width="3" stroke-linecap="round"/>
</svg>